<?xml version="1.0" encoding="UTF-8"?>
<svg id="Layer_2" data-name="Layer 2" xmlns="http://www.w3.org/2000/svg" viewBox="0 0 823.56 361.91">
  <g id="Layer_1-2" data-name="Layer 1">
    <g>
      <path d="M344.53,151.31l-17.55,50.26-21.33-50.26-26.43-53.36h-69.79c-.28-17.23-4.56-32.43-12.87-45.59-8.6-13.6-20.92-24.06-36.96-31.38-16.04-7.32-34.84-10.97-56.4-10.97s-38.44,3.21-53.71,9.62c-15.27,6.42-27.02,15.73-35.23,27.91C6.03,59.74,1.93,74.05,1.93,90.48c0,14.89,3.4,27.85,10.2,38.89,6.8,11.04,16.94,20.28,30.42,27.72,13.48,7.45,30.61,13.22,51.4,17.33,18.48,3.85,31.96,8.66,40.43,14.44,8.47,5.78,12.71,13.03,12.71,21.75,0,7.96-3.34,14.31-10.01,19.06-6.68,4.75-15.92,7.12-27.72,7.12-13.61,0-24.39-3.4-32.34-10.2-7.96-6.8-11.94-16.23-11.94-28.3H0c0,19,4.36,35.36,13.09,49.09,8.72,13.73,21.43,24.32,38.12,31.76,16.68,7.44,36.32,11.17,58.91,11.17,32.59,0,58.14-7.25,76.62-21.75,18.48-14.5,27.72-34.71,27.72-60.64,0-21.81-7.51-39.4-22.52-52.75-15.02-13.34-39.08-23.87-72.19-31.57-19.51-4.36-33.18-9.17-41-14.44-7.83-5.26-11.74-11.87-11.74-19.83,0-5.39,1.47-10.07,4.43-14.05,2.95-3.98,7.31-6.99,13.09-9.05,5.77-2.05,12.51-3.08,20.21-3.08,12.57,0,22.58,3.21,30.03,9.62,7.44,6.42,15.17,15.4,15.17,26.95h59.31l86.97,179.03-.95,2.7c-2.31,6.93-4.94,12.19-7.89,15.79-2.95,3.59-6.74,6.22-11.36,7.89-4.62,1.67-10.91,2.5-18.87,2.5h-23.87v54.29h28.11c16.68,0,30.28-1.61,40.81-4.81,10.52-3.21,19.25-8.73,26.18-16.55,6.93-7.83,13.22-18.93,18.87-33.3l90.09-225.23h-68.15l-24.64,69.3Z"/>
      <rect x="445.5" width="63.91" height="284.91"/>
      <path d="M739.17,127.82c-9.62-16.17-23.17-28.74-40.62-37.73-17.46-8.98-37.48-13.48-60.06-13.48s-42.22,4.49-59.68,13.48c-17.46,8.99-31.06,21.56-40.81,37.73-9.76,16.17-14.63,34.65-14.63,55.44s4.87,39.66,14.63,55.83c9.75,16.17,23.35,28.75,40.81,37.73,17.45,8.98,37.35,13.47,59.68,13.47s42.6-4.49,60.06-13.47c17.45-8.98,30.99-21.56,40.62-37.73,9.63-16.17,14.44-34.78,14.44-55.83s-4.81-39.27-14.44-55.44ZM684.5,210.79c-4.49,8.09-10.72,14.38-18.67,18.87-7.96,4.49-17.07,6.74-27.33,6.74s-19-2.24-26.95-6.74c-7.96-4.49-14.19-10.78-18.67-18.87-4.49-8.08-6.74-17.26-6.74-27.53s2.24-19.06,6.74-27.14c4.49-8.08,10.71-14.37,18.67-18.87,7.95-4.49,17.07-6.74,27.33-6.74s18.99,2.25,26.95,6.74c7.95,4.49,14.18,10.78,18.67,18.87,4.49,8.09,6.74,17.27,6.74,27.53s-2.25,19.06-6.74,27.14Z"/>
      <path d="M818.74,234.08c-3.21-5.39-7.64-9.68-13.28-12.9-5.65-3.21-12.19-4.81-19.64-4.81-11.04,0-20.02,3.41-26.95,10.2-6.93,6.8-10.4,15.59-10.4,26.37,0,6.93,1.54,13.16,4.62,18.67,3.08,5.52,7.51,9.89,13.28,13.09,5.77,3.21,12.25,4.81,19.44,4.81,11.03,0,20.08-3.46,27.14-10.4,7.06-6.93,10.59-15.65,10.59-26.18,0-7.18-1.61-13.48-4.81-18.87Z"/>
    </g>
  </g>
</svg>